<svg id="logosandtypes_com" data-name="logosandtypes com" xmlns="http://www.w3.org/2000/svg" viewBox="0 0 150 150"><defs><style>.cls-1{fill:none;}.cls-2{fill:#ff671d;}</style></defs><path class="cls-1" d="M0,0H150V150H0Z"/><path class="cls-2" d="M95.06,77.29c-2.76-1.37-4.9,2.84-2.18,4.27A2.4,2.4,0,1,0,95.06,77.29ZM72.19,61.16V70h.47V61.17l-.23-.3Zm30,18.2a2.19,2.19,0,0,0,4.38,0A2.19,2.19,0,1,0,102.17,79.36ZM93.9,102A2.26,2.26,0,0,0,94,106.5,2.26,2.26,0,0,0,93.9,102ZM81.33,81a1.47,1.47,0,1,0,1.23-2.65A1.47,1.47,0,0,0,81.33,81ZM67.92,69.92h2.63c-.15-1-.24-1.58-.43-2.34L67.54,68C67.61,68.65,67.77,69.15,67.92,69.92Zm3.47,0h.46V61.1l-.23-.32-.23.31c0,3,0,5.93,0,8.88Zm12-9.05-2.23,1a1.1,1.1,0,0,0,0,2,1.25,1.25,0,0,0,1-.07,1.71,1.71,0,0,0,.86,1.53c-.1.29-.4.7,0,.89s.51-.37.62-.64A1.81,1.81,0,0,0,85.4,65c0,.35.31.63.6.78a1.14,1.14,0,0,0,1.43-.57c.26-1.09-.65-2.08-.91-3.15a1.71,1.71,0,0,0,0-1c.28-.22,1.17-.48.89-.9s-.91.24-1.21.36a1.79,1.79,0,0,0-1.68-.66c-.13-.29-.16-1.2-.64-1.08s0,.9,0,1.28a1.71,1.71,0,0,0-.56.77Zm-1,2.31c-.27.12-.69.41-1,.24a.62.62,0,0,1,0-1.14l1.74-.82Zm2.73,1.16-2.12-.82.29-.75,2.13.84Zm1.28-1.52c.21.74,1.59,2.84-.11,2.62-.35-.15-.42-.56-.54-.87a15,15,0,0,1,.61-1.74Zm-.41-.68-.29.73L83.59,62c.11-.24.2-.48.29-.74Zm-5,44.88c1.18,1.3,4.07.9,4-1.14a2,2,0,0,0-2.84-1.75v-.69h2.32c.31.06.14-.64.18-.94,0-.13-.07-.18-.2-.18H81.19c-.13,0-.2.05-.2.18v2.84c0,.12.07.18.2.18h1c.28-.07.44-.38.79-.34a.77.77,0,0,1,.85.7c0,.9-1.59.84-1.9.08a.15.15,0,0,0-.2,0l-.82.54c-.23.13,0,.38.09.54Zm.73-31.53a3.48,3.48,0,0,0-3.55-3.31V70.77q-5.52-.1-11.06-.18h0V80a1.68,1.68,0,0,0,1.69,1.6l7.69.13a1.61,1.61,0,0,0,1.68-1.54s0-1.41,0-1.44a3.32,3.32,0,0,0,3.5-3.2Zm-3.57-2.2a2.16,2.16,0,1,1,0,4.3ZM68.45,60.23a3.85,3.85,0,0,1-1.38-1.37C67,60,65.82,60.6,66,61.7,66.85,64.47,70.86,62.14,68.45,60.23Zm19.67,13a1.14,1.14,0,0,0,.59.61,1.09,1.09,0,0,0,1.42-1.41l-.9-2.31a1.71,1.71,0,0,0,0-1l.78-.48a.31.31,0,0,0,.1-.44c-.36-.4-.84.22-1.19.37A1.83,1.83,0,0,0,87.24,68L87,67.17a.34.34,0,0,0-.4-.23c-.51.21,0,.87,0,1.27a1.7,1.7,0,0,0-.7.68l-2.22,1a1.11,1.11,0,1,0,1.11,1.93,1.72,1.72,0,0,0,.86,1.55l-.19.48c-.15.38.45.6.6.23,0-.15.13-.31.19-.47A1.75,1.75,0,0,0,88,73.06ZM89,70.88l.7,1.79a.63.63,0,0,1-.81.82c-.33-.1-.43-.61-.55-.87ZM86.5,69.36l2.11.83-.28.73-2.16-.81c.11-.26.2-.5.29-.75ZM85,71.27c-.28.11-.7.42-1,.24a.63.63,0,0,1,0-1.15l1.73-.82Zm2.7,1.08-2.1-.82c.1-.24.19-.48.29-.74l2.11.83Zm-20.22-9a17.06,17.06,0,0,0,0,4L70,67.06a17.82,17.82,0,0,0-1.55-3.81ZM79,69.59a.64.64,0,0,0,.85.39c.19-.06.42-.22.4-.44a1.14,1.14,0,0,0,1,.44c0,.16.09.51.34.43s.09-.38,0-.53a1.09,1.09,0,0,0,.7-.93h.1a.67.67,0,1,0,.67-1.15L81.77,67a1.23,1.23,0,0,0-.39-.46c0-.18.37-.69.06-.78s-.34.48-.43.63a1,1,0,0,0-1.05.3l-.45-.33c-.2-.16-.45.16-.24.32h0l.47.33a1,1,0,0,0,0,.59C79.53,68.28,78.85,68.88,79,69.59Zm3.94-1.45c.28.16.3.63,0,.71s-.45-.08-.6-.18l-.35-1.15Zm-1.06.62-1.33.38-.15-.47,1.34-.39A3.21,3.21,0,0,0,81.86,68.76Zm-.45-1.42a1.89,1.89,0,0,0,.15.48l-1.33.38-.15-.47ZM79.27,69.2c.17-.36.33-.71.51-1.06l.34,1.16c-.08.16-.16.45-.37.5S79.09,69.49,79.27,69.2Zm-6.21.8h.47V61.18l-.24-.3-.23.3ZM86.31,81.18c.67-1.5-1.62-2.68-2.31-1.11S85.57,82.59,86.31,81.18Zm-.53-5.78c-1.65-.85-3.06,1.74-1.42,2.63A1.5,1.5,0,1,0,85.78,75.4ZM71.54,60.66h.19c.15-.37.28-.74.43-1.16h.53l.45,1.16h.17l-.88-2.25C72.13,59.18,71.84,59.92,71.54,60.66Zm.8,44.63A5.61,5.61,0,0,0,67.56,99c-6.78-.78-8.6,8.85-2.21,10.87l.17-1.49a1.82,1.82,0,0,1-2-1.58,4.67,4.67,0,0,0,2.23-.12c.19-.06.36-.29.24-.48s-.36-.11-.52-.07a10.5,10.5,0,0,1-1.86-.1v-.42c-.47.08-.92-.27-.71-.76l1.23-2.6h0c1.32-3.34,6.32-2.16,6.16,1.38-.22,1.59-1.24,3-1.33,4.63v1.43A5.58,5.58,0,0,0,72.34,105.29Zm-8,7.55a7.53,7.53,0,0,0-.07,1.72c0,.15.09.2.28.18a3.13,3.13,0,0,0,2.47-1.27c0,1.73.07,3.91.1,5.63a.19.19,0,0,0,.17.19h1.73c.12,0,.18-.06.17-.18,0-2.57-.08-5.57-.12-8.09a.25.25,0,0,0-.29-.29H67.29c-.16-.07-.27.06-.28.22a2.46,2.46,0,0,1-.8,1.15A3.87,3.87,0,0,1,64.38,112.84ZM67.47,101l.65.85-.77.6.63.81.45-.35-.41-.53.84-.65A2.16,2.16,0,0,0,67.47,101Zm-1.16.07c-.68.26-.52.9-.13,1.34l.72-.56.24.32.5-.38c-.21-.28-.42-.54-.61-.82A3.57,3.57,0,0,0,66.31,101Zm2.75.93-.56.44.4.53-.37.29.5.66c-.12.1-.24.2-.37.29l.54.71A3,3,0,0,0,69.06,102Zm-4.44,2.31a.5.5,0,0,0,1,.14C65.7,103.77,64.68,103.61,64.62,104.27Zm-19.53-5c.41,0,.23.7.27.94-.09.71.92.94,1,.52,0-.16.08-.4-.08-.49h0c0-.06,0-.64,0-.72a.87.87,0,0,0-1.39-.78V97.56c0-.09,0-.14-.13-.14s-.76-.09-.69.13c0,1.16,0,2.22.09,3.33,0,.08,0,.13.12.13h.58c.08,0,.12,0,.11-.13a6.19,6.19,0,0,1,.06-1.43.27.27,0,0,1,0-.26Zm16.2-18.84a.78.78,0,0,0,1.44.41l.43-.76c.32.54.71,1.47,1.51,1s.15-1.27-.18-1.8c.63,0,1.64.16,1.66-.76s-1-.77-1.67-.77c.35-.54.92-1.36.15-1.81s-1.18.48-1.49,1c-.32-.55-.69-1.54-1.51-1.1s-.16,1.27.17,1.81c-.62,0-1.63-.16-1.64.75s1,.78,1.65.78C61.69,79.5,61.21,80.08,61.29,80.41ZM43.07,98.13a.41.41,0,0,0,0-.81c-.52,0-.47.79,0,.81Zm18-8.55A1.55,1.55,0,0,0,59.53,88H53.32a1.58,1.58,0,0,0-1.55,1.6s0,1.85,0,1.86a2.18,2.18,0,0,0,0,4.21v2.79a1.59,1.59,0,0,0,1.55,1.6h6.16c1.56,0,1.71-1.58,1.6-2.79A4.23,4.23,0,0,1,59.23,97a3.77,3.77,0,0,1-2.31-2.87h4.13C61.06,92.63,61.06,91.11,61.07,89.58ZM58.44,91.5a1,1,0,1,1-1.88-.8A1,1,0,1,1,58.44,91.5ZM42.83,101c.37,0,.77.09.7-.11a10.67,10.67,0,0,0-.23-2.5c-.1,0-.55-.08-.55.09,0,.8,0,1.6,0,2.41C42.71,101,42.75,101,42.83,101Zm25.45,2.4-.35.26-1.08-1.4-.46.36,1.29,1.86.89-.69Zm63.39-8.83a.44.44,0,0,0-.41-.31,107.81,107.81,0,0,1-16.62-3.17.45.45,0,0,0-.37.08c-4.47,3.26-9.53,7-14.61,10.41a3.57,3.57,0,0,0-.29,5.55h0a9.25,9.25,0,0,1,1,.21,4.12,4.12,0,0,0,.18,3.59l-.7.37c-2,1-1.68,4-.24,5.39a84.5,84.5,0,0,0,19.87,5.46c.34,0,.92.21,1.18-.09a82.73,82.73,0,0,0,12.22-13.15c.3-.37.19-.94-.39-.84v-2.81l1.42-1.78c.32-.4.14-.94-.43-.85,0-1.08-.07-2.17-.11-3.24.21-.24.59-.57.47-.93a.39.39,0,0,0-.39-.29c-.67,0-1.34,0-2-.06,0-.91-.1-1.82-.16-2.71h0c.2-.2.58-.5.44-.83ZM119.93,107c3.9-3.18,7.06-7.25,10.34-10.56.07,1.08.14,2.17.2,3.26-3.26,3.63-6.7,7.46-10.62,11.13v-3.87S119.9,107,119.93,107Zm-19.75-.62c.08-1.16.17-2.42.26-3.62,6,1.16,12.25,2.9,18.31,4.05v3.89c-6.15-1.1-12.52-2.87-18.58-4.32Zm18.93,14.76a95.29,95.29,0,0,1-18.71-5c.08-1.16.17-2.32.23-3.48a128.79,128.79,0,0,0,18.72,4.69,36.16,36.16,0,0,1-.25,3.77Zm-17.11-10c.07-1,.13-2.07.2-3.11,5.57,1.43,11.39,3,17,4,.08,0,.75.13.81.11.26,0,.49-.28.66-.44h.18c0,1.29,0,2.57-.09,3.84A136.43,136.43,0,0,1,102,111.06Zm18.16,10.17c.13-1.24.23-2.49.3-3.76.38.07.85-.57,1.11-.76a1,1,0,0,0,.74-.18,105.29,105.29,0,0,0,9.17-10.06v2.81a85.62,85.62,0,0,1-11.28,12Zm12.21-20.67c0,1.08.09,2.17.12,3.28a125,125,0,0,1-10.66,11.76c0-1.28.07-2.56.07-3.83a.55.55,0,0,0,.45-.18c3.74-3.65,7-7.42,10.05-11Zm-8.88-51.18a19.61,19.61,0,0,1,2.32,5.48c1-4.08-1-9.17-5.58-9.76-.39-.08-.54.16-.63.55-1.15,4.66.81,9.59,4.78,10.61.5.18.62,0,.55-.66A13.77,13.77,0,0,0,122.82,50c-.25-.42-.9-.94-.44-1.41s.84.36,1.15.82Zm-5.48-9c-.22.3-.39.4-.8.15s-.7-.44-1.15-.12-.4.63-.07,1.06c.78,1,1.56,2,2.31,3,.27.34.6.36.81,0a1.65,1.65,0,0,0,.31-1.53c-.09-.19,0-.25.23-.26,2.9-.3,6.25.69,7.78,3.33a8,8,0,0,1,.95,3.4c0,.91,1.31.24,1.65-.18,3.08-2.74.78-7.77-2.9-8.53a11.58,11.58,0,0,0-5.46-.1c3.44-1.72,7.67-.27,9.92,2.69.24.29.42.29.7,0,1.22-1.75-.29-4.65-1.91-5.7-3.93-3.19-9.85-1.29-12.33,2.8ZM125,41a5.42,5.42,0,0,1,5.39,3.39c0,.12,0,.27-.17.31a.31.31,0,0,1-.35-.21,4.9,4.9,0,0,0-4.88-3.07c-.66,0-.57-.49.06-.42Zm-1.35-4.11a7.2,7.2,0,0,1,7.12,1.94c.1.11.18.29,0,.41a.39.39,0,0,1-.46-.11,6.34,6.34,0,0,0-6.44-1.77c-.22.06-.49.14-.6-.1s.22-.3.42-.37Zm-35.81,85a2.45,2.45,0,0,0-4.89.3,2.48,2.48,0,0,0,4.94-.3Zm-.69-.93a2.44,2.44,0,0,1,.27.74H86.6a3.7,3.7,0,0,0-.13-.74Zm-.31-.4h-.45a2.82,2.82,0,0,0-.25-.49,2,2,0,0,1,.74.49ZM85,120v.62h-.42a1.45,1.45,0,0,1,.47-.62Zm-.49,1.07h.55v.75h-.64a3.75,3.75,0,0,1,.19-.75Zm-.13-.92a2.69,2.69,0,0,0-.2.51h-.45a2.34,2.34,0,0,1,.69-.51Zm-.92,1h.63a5,5,0,0,0,0,.77h-.77a2.23,2.23,0,0,1,.19-.77Zm.11,1.92a2.34,2.34,0,0,1-.27-.74h.76a6.35,6.35,0,0,0,.13.76Zm.31.41h.45a2.47,2.47,0,0,0,.24.49,2.23,2.23,0,0,1-.65-.49Zm.6-1.16h.64V123h-.54a3,3,0,0,1-.05-.79Zm.29,1.16h.4v.6a1.27,1.27,0,0,1-.35-.63Zm.65-3.41a1.3,1.3,0,0,1,.44.59h-.41Zm0,1H86a3.68,3.68,0,0,1,.14.75H85.5a2.22,2.22,0,0,0,0-.8Zm.16,3v-.62H86C86,123.62,85.86,123.92,85.62,124Zm.48-1.07h-.54v-.75h.64a5.77,5.77,0,0,1,0,.72Zm.14.92a3.52,3.52,0,0,0,.19-.51H87A2.05,2.05,0,0,1,86.24,123.86Zm.91-1h-.63a5,5,0,0,0,0-.77h.75a1.79,1.79,0,0,1,0,.73Zm.44,1.15a.23.23,0,0,0-.31,0,2.68,2.68,0,0,1-1.82.82,2.87,2.87,0,0,1-1.28-5.46c.26-.1.07-.49-.17-.38a3.29,3.29,0,0,0,1.26,6.27v.81c-.22,0-1-.13-.9.22a.21.21,0,0,0,.22.2l1.88-.09a.21.21,0,0,0,0-.42h-.76v-.81a3.15,3.15,0,0,0,1.9-.93.22.22,0,0,0,.09-.27ZM72.18,116c-1.08.52-2,1.26-1.82,2.58q0,.18.21.18h3.87a.19.19,0,0,0,.21-.21c-.06-.29.17-.86-.16-1,0,0-2.1,0-2.15,0a4.52,4.52,0,0,1,.82-.57c2.22-1.08,1.91-4.1-.72-4.11a2,2,0,0,0-2.1,1.64c0,.17,0,.26.16.29l1,.26a.14.14,0,0,0,.2-.12.74.74,0,0,1,.75-.69c.69-.06.9.94.39,1.31A6.38,6.38,0,0,1,72.18,116Zm-3.27-10.71-.61-.81-.53.42c.25.51.79.85,1.24.33Zm19.44,11.29a.76.76,0,0,0,.42-1.36,3.22,3.22,0,0,0-.09-.87,1.67,1.67,0,0,0,0-3,1.61,1.61,0,0,0-2.05-2.16l-.17-.24a.73.73,0,0,0-1.21-.81,1.76,1.76,0,0,0-1.53,1,1.62,1.62,0,0,0-2,2.17,1.69,1.69,0,0,0,0,3,2.12,2.12,0,0,0,.19,1.67.74.74,0,0,0,1.36.56,1.89,1.89,0,0,0,.53-.08,1.52,1.52,0,0,0,2.89,0,2.82,2.82,0,0,0,.65.08,1.65,1.65,0,0,0,.66-.12.62.62,0,0,0,.46.06Zm1-3.76a1.46,1.46,0,0,1-.73,1.16,6.24,6.24,0,0,0-.51-1.12,5.64,5.64,0,0,0,.5-1.16,1.49,1.49,0,0,1,.83,1.07Zm-1.84-.24.15.24-.15.26Zm0-.73c0-.24-.06-.49-.1-.73.31.07.6.27.91.33a5.58,5.58,0,0,1-.39.95,3.4,3.4,0,0,0-.37-.59Zm0,2c.15-.19.29-.39.42-.59a5.53,5.53,0,0,1,.4.94,5,5,0,0,1-.92.39,4.6,4.6,0,0,0,.15-.8Zm-.15-4.33c.87-.11,1.3.9,1.06,1.63a5.19,5.19,0,0,0-1.08-.4,6.65,6.65,0,0,0-.41-1.16,1.89,1.89,0,0,1,.48-.13Zm-.74,4.78a7.27,7.27,0,0,1-.57.54c-.5,0-1,0-1.54,0-.24,0-.8-.87-1.11-1.16-.16-.24.08-1.09,0-1.63,0-.26.77-.8,1.09-1.14H86c.26,0,.38.34.58.54a5.72,5.72,0,0,1,.52.6c.16.24-.08,1.1,0,1.63C87.1,113.87,86.74,114,86.58,114.2Zm.44.1v.29h-.28Zm-1.55.88-.23.16-.23-.16Zm-1.68-.52h-.28v-.3Zm-.35-3.4V111h.28Zm1.55-.88.24-.16.23.16Zm1.68.53H87a1.41,1.41,0,0,1,0,.29.82.82,0,0,1-.23-.35Zm-.18-1.34a4.81,4.81,0,0,1,.35,1,5.21,5.21,0,0,0-.69-.1,4.81,4.81,0,0,0-.57-.44,5.64,5.64,0,0,1,1-.48Zm-1.35-1.16h0c0,.59.56.82,1.07.75h0a5.65,5.65,0,0,0-1.07.54,5.37,5.37,0,0,0-1.07-.54,1.47,1.47,0,0,1,1.12-.77Zm-1.23,1.16v-.09a4.54,4.54,0,0,1,.9.41c-.46.35-.6.61-1.25.55a6.4,6.4,0,0,1,.39-.84Zm-1.61,0a1.51,1.51,0,0,1,1.27-.3,5.86,5.86,0,0,0-.39,1.16,5.28,5.28,0,0,0-1.09.4h0a1.56,1.56,0,0,1,.24-1.17Zm.65,3.31-.15-.25.15-.25Zm-.37-.63a3,3,0,0,1-.37-1h.09a5.85,5.85,0,0,1,.82-.33,1.89,1.89,0,0,1-.5,1.38Zm0,.77c.13.2.27.4.42.59s.06.48.11.73c-.3,0-.58-.23-.87-.27a2.65,2.65,0,0,1,.38-1Zm-.71.67v.07a1.31,1.31,0,0,1,0-2.32,5.42,5.42,0,0,0,.5,1.16,5.59,5.59,0,0,0-.44,1.18ZM83.34,116h-1a1.84,1.84,0,0,1-.08-1.16h0a5.34,5.34,0,0,0,1.09.42,6.59,6.59,0,0,0,.39,1.16h0Zm.6-.23a5.44,5.44,0,0,1-.32-.88l.69.1a4.81,4.81,0,0,0,.57.44,4.29,4.29,0,0,1-.89.43Zm1.31,1.16a1.4,1.4,0,0,1-1.07-.77,4.85,4.85,0,0,0,1.07-.53,4.78,4.78,0,0,0,1.06.53,1.36,1.36,0,0,1-1,.89Zm1.31-1.16a.14.14,0,0,0,0,.09,4.38,4.38,0,0,1-.91-.41c.19-.14.37-.28.56-.44s.46-.07.69-.12a5.24,5.24,0,0,1-.3,1Zm1.15-.07h0v.07h0a1.28,1.28,0,0,1-.39,0,1.77,1.77,0,0,1-.46,0h0a6.59,6.59,0,0,0,.39-1.16,6,6,0,0,0,1.16-.42,2.35,2.35,0,0,1,0,.53A.79.79,0,0,0,87.71,115.7Zm-2.45-4.09a1.05,1.05,0,0,0-.09,2.1,1,1,0,1,0,.1-2Zm9.53-88c2.83,1.53,4.85-1.77,4.53-4.34,0-.35-.07-.42-.43-.45a4.35,4.35,0,0,0-4.54,1.79c-.4.65-.37.65.13,1.26s.62,1,.24,1.48c0,.21,0,.27.08.33Zm1-.7a2,2,0,0,0,2.11-1.15,1.78,1.78,0,0,1-2,1.58h-.18c-.33,0-.32-.45,0-.36ZM88.26,37.23h0c.22,0,.17-.23.22-.38s0-.12-.08-.1A2.21,2.21,0,0,0,87,40.24a2.32,2.32,0,0,0,1.84,1c2.93,0,2.93-4.41,0-4.54a.21.21,0,0,0,.23.26.32.32,0,0,1,.34.14c0,.32-.52.34-.38.72,0,.13,0,.3-.15.32s-.17-.45-.51-.48c-.11,0-.27,0-.3-.14s.15-.13.22-.21Zm1.74.3c.93.66.91,2.58-.12,3A2.9,2.9,0,0,0,90,37.53Zm-2.81,1.34c-.25,0-.28-.42,0-.42S87.44,38.86,87.19,38.87Zm.08-.9a.26.26,0,0,1,.51,0C87.78,38.35,87.26,38.3,87.27,38Zm.55.93c-.25,0-.28-.45,0-.46a.22.22,0,1,1,0,.43Zm21.47,34a3.53,3.53,0,0,0-7.05,0C102.2,77.41,109.36,77.43,109.29,72.91ZM93.21,21.41c-.3,0-.44.08-.44.38a1.93,1.93,0,0,0,1.42,1.49c.24,0,.38,0,.39-.28A1.8,1.8,0,0,0,93.21,21.41ZM68,37.72c-1.61,1.76-1,4.43-2.91,6.07-1.58,1.76-2.82,3.23-3.33,3.77s-1.65,1.77-.56,2.7,1.84-.62,2.22-1.27c1.48-2.29,2.86-5.21,5.62-6.1a6.47,6.47,0,0,0,3.44-1.41,13.25,13.25,0,0,1-2-.06c-.18-.6,0-1.26-.13-1.92h-2a.21.21,0,0,1-.22-.2V37.62A.71.71,0,0,1,68,37.72Zm.58-.52V39h2a.2.2,0,0,1,.22.17V41h2a3.33,3.33,0,0,0,.36-.39H71.3a8.61,8.61,0,0,1-.07-1.91h-2a.22.22,0,0,1-.22-.2V36.92C68.9,37,68.75,37.1,68.6,37.2ZM43.87,96.72v-.19h0c0-.2,0-.48-.12-.65a.41.41,0,0,0-.58,0v-.69h-.29v1.74H43s0-.54,0-.72c0,0,.17,0,.2,0s0,.37,0,.44C43.16,97.1,43.82,97,43.87,96.72ZM59.2,46.22c-.25.46-.76,1.54.11,1.92s1.16-.8,1.24-1.31c.61-1.82,1-4,2.61-5.24A4.9,4.9,0,0,0,65.08,40v-.08a10.25,10.25,0,0,1-1.37.39,9.32,9.32,0,0,1-.5-1.23l-1.3.42a.14.14,0,0,1-.18-.07,11.27,11.27,0,0,1-.38-1.16,3.51,3.51,0,0,0-.28,2.32C61.33,42.23,59.52,45.3,59.2,46.22Zm47.89,15.12c.57-2.09-2.45-.9-3.53-1.17a1.43,1.43,0,0,0-1.09.28,7.73,7.73,0,0,1-4.62,1.43,14,14,0,0,0-3.29.32,4.29,4.29,0,0,0-2.45,6.47c4.87,6.1,13.76.55,15.82-5.44,0-.23.41-.84-.15-.73C106.86,62.63,106.43,62.06,107.09,61.34ZM94.18,64.17a.32.32,0,0,1-.23-.41,1.24,1.24,0,0,1,1.4-.68.24.24,0,0,1,.17.31A1.48,1.48,0,0,1,94.18,64.17ZM98,69.74c-.89-.08-2.67-.15-2.71-1.32a.76.76,0,0,1,.61-.67.66.66,0,0,1,.48,0,9,9,0,0,0,8.22-1A8.11,8.11,0,0,1,98,69.74ZM108,39.66a.86.86,0,0,0-1.68,0c-.06.14-.27.22-.4.32a1.67,1.67,0,0,1-.43-.87c-1.39-1.78-2.41,2-2.59,3l.61.3c1-1.16,1.35-1.16,2.79-.65a1.82,1.82,0,0,1,1.81-1,3.92,3.92,0,0,0-.11-1.09Zm-.88-3.77c-.74.65-1.49,1.28-2.31,1.93.49.33.87.56,1.27.8a1.75,1.75,0,0,1,1.94,0c.33-.92.62-2.28,1.84-2.26a1.48,1.48,0,0,1,1.32.92h.08c.88-.68.59-1.63-.69-2.32.44-1.37-1-3.13-2.47-2.46,1.18,1.42,0,2.37-1,3.39ZM92,35.65c2.2,4.44,9,5.49,12,1.28,3.16-4,.27-10.49-4.64-11.39-.23,0-.34,0-.26.28.15.49,0,1.16.71,1.29.75.68,1.19,1.41-.22,1.47a1.07,1.07,0,0,0-.89.68c-.16.32-.37.8-.7.69s-.52-.64-.48-1a1.26,1.26,0,0,0-.66-1.46c-1-.53-.71-1.54.45-1.29.37.1.58,0,.72-.4,0-.12.23-.17.14-.35s-.22-.1-.34-.1C92.65,25.23,89.5,31.31,92,35.65Zm12-3.72a.63.63,0,1,1-1.25-.11C102.75,30.91,104,31.13,104,31.93Zm-1.79-3.05c1,0,1.15,1.6.07,1.65S101.13,28.82,102.22,28.88ZM101.31,31a.72.72,0,0,1,.08,1.44C100.55,32.41,100.39,31.12,101.31,31Zm-7-3.31a9,9,0,0,0,.49,9.42c-.83-.16-2.31-2.42-2.53-3.82-.26-2.28.53-4.62,2.09-5.6ZM42,31.48c.56-.17-.06-1.24-.45-1.36s-.37-.28-.36-.54-.4-.24-.41,0v2.9c-1.24-.66-1.94,1.44-.49,1.56,1.52,0,.71-2.66.9-3.7a1,1,0,0,1,.61.93A.19.19,0,0,0,42,31.48ZM24,40.09a.42.42,0,0,0,.39-.75A.42.42,0,0,0,24,40.09Zm1.15,6.69q1.09-2.16,2.21-4.3A.46.46,0,0,1,27,41.8c.32-.41.38-1.17.9-1.41q.72-2.67,1.46-5.32l-.76-.37c-1.16,1.41-2.37,2.83-3.55,4.24.16.56-.41,1.05-.57,1.59a.48.48,0,0,1-.73.17L21.58,45Zm25.14-8.84a3,3,0,0,0,3.39,3.71c.14,1.22-.45,2.48-1.32,2.37a.65.65,0,0,0,.35-.72.89.89,0,0,0-1.78,0c-.07,1.61,3.57,2,3.3-1.77,3.17-.7,2.39-4.62-.29-4.37l-.07-1.55a4.72,4.72,0,0,0,2.1-3.19c.18-1.24,0-2.9-1-2.93-1.58.13-1.58,3.68-1.47,5.07a5.94,5.94,0,0,0-3.11,3.38Zm3.89,3c-.07-.91-.13-1.81-.19-2.73C55.66,38.49,55.58,40.4,54.13,40.93Zm.16-9.25c.5-.82,1-.79,1,.2a2.68,2.68,0,0,1-1.45,2.37,4.61,4.61,0,0,1,.53-2.58Zm-.88,4.24v1.39c-1.93.51-1.8,2.11-1.31,2.71s.8.33.41-.19.1-1.46,1-1.63c0,.91.1,1.77.15,2.88-1.49.27-3.35-1-2.59-2.67A7.65,7.65,0,0,1,53.41,35.92ZM18.3,46.49c-.11.54-.24,1.08-.37,1.64q5.52,2.74,11.22,5.66l1.16-1.29-1.92-1a.44.44,0,0,1-.78-.39l-3.12-1.59a.42.42,0,0,1-.76-.38l-3.11-1.56a.42.42,0,0,1-.76-.38ZM51.78,29.72h-.19l-2.52.79H49v2.55a.76.76,0,0,0-1.18.6.74.74,0,0,0,.76.73c1.31-.12.58-2.16.76-3.05l2.2-.67v1.62a.76.76,0,0,0-1.18.61.76.76,0,0,0,1.51,0V29.76Zm-.33.62L49.26,31v-.36l2.2-.67Zm-11,5.33c-.32.32.44.61.78.9a.33.33,0,0,0,.36-.1c.34-.33-.47-.64-.8-.92A.25.25,0,0,0,40.47,35.67Zm2.94-.19c.46-.16.05-.94.05-1.3a.24.24,0,0,0-.29-.21c-.4.24,0,.91,0,1.29A.25.25,0,0,0,43.41,35.48Zm-5.16,5.79c-.49.58-.34,1.06-.26,1.72a20.93,20.93,0,0,1,.38,2.07l-.88,1.24a.44.44,0,0,0-.18.44c.09.84.19,2.3,1.28,1.2.28-.36.94-.67.84-1.19,0-.32-.31-1.73-.27-1.86-.53-1.26.81-2.49,1.43-3.44h0c.14-.15.34-.64.62-.49h.25c.79-1.12,1.62-2.22,2.42-3.34a.53.53,0,0,0-.09-.74.58.58,0,0,0-.81.19L40.14,41c-.13.18-.32.45-.46.63s-.26.43-.49.29c-.39-.21.27-.77.51-1.19.26-.27.12-1.1-.26-1.08C39.42,39.62,38.26,41.26,38.25,41.27Zm-22,41.12a.57.57,0,0,0-.31.68,40.19,40.19,0,0,0,2.12,5.07.5.5,0,1,0,.88-.48,38.72,38.72,0,0,1-2.06-4.94.49.49,0,0,0-.66-.37Zm45.24-66.8A1.41,1.41,0,0,0,62.92,17a1.44,1.44,0,0,0,1.45-1.37V11.25L68.45,10v3a1.44,1.44,0,0,0-2.23,1.12,1.44,1.44,0,0,0,2.87,0v-6h-.25L64.11,9.66h0c0,1.61,0,3.21,0,4.83C63.08,13.89,61.53,14.29,61.51,15.59ZM64.38,10l4.07-1.22v.66l-4.11,1.22Zm23.14.28.07,4c-1.78-1.06-2.67,1.87-.68,2.14a1.16,1.16,0,0,0,1.16-1.16v-3.7l3.47-.9v2.57c-1.82-1.08-2.63,2-.59,2.14a1.1,1.1,0,0,0,1.16-1c0-1.69-.08-3.39-.12-5.07h0V9.21h-.21l-3.94,1.06h-.1Zm4-.69v.56L88,11v-.57Zm-9.32,3.88h0c.16.12,3.4-.93,3.6-.89h0V9.27c1.5.88,2.16-1.54.49-1.7a.78.78,0,0,0-.67.18c-.6.87-.13,2.58-.27,3.66l-2.8.76V10.08C84,11,84.68,8.54,83,8.38a.9.9,0,0,0-1,.87c0,1.35,0,2.72,0,4.09Zm3.23-1.5v.46l-2.8.77v-.47ZM71.51,16.48A1.53,1.53,0,0,0,73.1,15V9.78a2,2,0,0,1,1.16,1.75.37.37,0,0,0,.74,0A2.42,2.42,0,0,0,73.76,9.4c-.45-.33-.68-.52-.68-1a.37.37,0,0,0-.37-.37.36.36,0,0,0-.37.37v5.25A1.53,1.53,0,1,0,71.51,16.48Zm2.6-1.9a1.29,1.29,0,0,0,1.28,1.22,1.17,1.17,0,0,0,1.26-1.05c0-1.33,0-2.66,0-4,1.16-.33,2.41-.68,3.61-1v2.68a1.19,1.19,0,1,0-.69,2.13,1.15,1.15,0,0,0,1.24-1.06c0-1.77,0-3.54,0-5.3h0V8.16h-.21L76.46,9.32h0v4.31C75.51,13.05,74,13.18,74.11,14.58Zm6.11-6V9.2l-3.6,1V9.63Zm12.72,12.5c.36-.11.65.28.82-.2a3.8,3.8,0,0,1,1.51-1.71,5.25,5.25,0,0,1,1.07-.51c.14,0,.26-.09.19-.29a9,9,0,0,0-.78-1.87c-.1-.17-.18-.19-.33-.1A7.77,7.77,0,0,0,93,18.76a2.52,2.52,0,0,0-.42,2c0,.23.16.4.4.31Zm11.57,4.62a4.56,4.56,0,0,0,3.76,3c0-.11,0-.16-.06-.22-.61-1,.13-1.26,1-1.15A9.1,9.1,0,0,1,113.9,29c-.44-.93-.06-1.95-.33-2.89a4.62,4.62,0,0,0-1.16-1.67,2.17,2.17,0,0,1-.68-2,.28.28,0,0,0-.09-.32,2.76,2.76,0,0,1-.79-.88,2.61,2.61,0,0,0-2.77-.84c-.24,0-.17.18-.06.34.35.57.24.83-.39.87-2-.05-3.86,2-3,4Zm1.65-2.17c1.76-1.08,3.91.4,5.09,1.72a7.19,7.19,0,0,0-4.59-1c-.25,0-.58.17-.74-.15s.09-.52.33-.68Zm-12.81-6A10.16,10.16,0,0,1,95.29,16c.37-.25.4-.22.64.19a13.18,13.18,0,0,1,.76,1.67c0,.08,0,.2.15.2S97,18,97,18c.9-.93.59-2.65,1.69-3.15.56-.29,1.07-.89,1.75-.53a2.11,2.11,0,0,0,1.47.33,1.62,1.62,0,0,1,1,.79c.09.29.5.18.25-.1,0-.73-.9-.91-1-1.58a1.75,1.75,0,0,0-2.31-1.22.38.38,0,0,1-.41-.07,2.49,2.49,0,0,0-1.15-.54,2.09,2.09,0,0,0-1.92.56.6.6,0,0,1-.48.16A1.8,1.8,0,0,0,94,14.12a.41.41,0,0,1-.25.34,2.31,2.31,0,0,0-1,3c.39.33.4.33.66.05Zm3.31-4.27a.47.47,0,0,0,.54-.18,1.49,1.49,0,0,1,2.31.07.46.46,0,0,0,.48.15,1,1,0,0,1,1.08.47c-.58-.49-1.37.16-1.81-.45a1.26,1.26,0,0,0-1.77-.1c-.14.14-.28.35-.51.27a2.17,2.17,0,0,0-1.82.4,1.28,1.28,0,0,1,1.58-.71Zm6.11,2.4a1,1,0,0,0-1.32-.72c-.17.06-.34.17-.47,0a.93.93,0,0,0-1.27-.33c-.21.1-.31.41-.58.4a1.05,1.05,0,0,0-.77,1,5.49,5.49,0,0,1-1,2.31.11.11,0,0,0,0,.18c.11.08.12,0,.19,0a5.94,5.94,0,0,1,1.46,0c.78.11.79.12.83.71v.56a5.34,5.34,0,0,1-1.15,3.47c-.2.23-.19.26.11.41a2.76,2.76,0,0,0,3.07-.32.59.59,0,0,1,.38-.16,1.81,1.81,0,0,0,1.67-1.3c.07-.58.72-.74.93-1.23a1.89,1.89,0,0,0,0-1.87.59.59,0,0,1,0-.69A1.53,1.53,0,0,0,103.31,16C103.1,16,102.83,16,102.77,15.74ZM30.55,27.47c.55.68,1.12,2.05,1.83,2h.89c.19,0,.16.17.15.3h-.54a.69.69,0,1,0,1.36.11h-.48c0-.18,0-.32.23-.27l1.35.1c.22,0,.15.17.16.24l-.6-.1a.7.7,0,1,0,1.38.14l-.53-.06a.48.48,0,0,1,0-.17c0-.08.1,0,.16,0,.48,0,1,.08,1.48.1.17,0,.12.15.12.28H37a.64.64,0,0,0,.17.57h.06c.4.31,1.17.07,1.14-.49h-.53c0-.15,0-.31.21-.27l.75.06c.77.05,1-.9,1.41-1.39.17-.18,17.13-.42,18.69-.36.77,3.84,2.75,7.16,7.18,6.69a11.74,11.74,0,0,0,3.18-1c2-1.14,4.06.36,5.81,1.33h.15l2,1.06a11.66,11.66,0,0,0,6.59,1.43c9.2-.94,8.33-21.06-.43-22.3A12.71,12.71,0,0,0,77,16.49s-2.1,1.05-2.18,1.12h-.16C73,18.55,70.91,20,69,18.8a12.56,12.56,0,0,0-3.17-1.05c-4.33-.5-6.35,2.88-7,6.64-1.46,0-18.46.38-18.62.32-.23-.32-.46-.67-.7-1-.29-.49-1-.22-1.45-.17-.16,0-.24-.12-.2-.26l.52-.08c.05-.59-.75-.74-1.13-.4h0a.63.63,0,0,0-.17.57l.51-.09c0,.12.05.27-.13.29-.56,0-1.09.2-1.64.21a.25.25,0,0,1,0-.17l.53-.1c0-1.09-1.64-.68-1.37.32l.53-.1c0,.14,0,.25-.16.26l-1.35.21c-.19,0-.27-.1-.23-.27l.48-.08c0-1-1.56-.74-1.37.23l.54-.1c0,.13,0,.29-.14.31l-.9.13c-1,.21-1.22,1.49-1.9,2.15A.63.63,0,0,0,30.55,27.47ZM80.3,21.91c.43,0,1.19-.13,1.14.53,0,2.59,0,5.39,0,8,0,.52-.15.5-.52.5s-1.26.18-1.18-.57c0-.28-.08-4.1-.07-4.24V22.41C79.73,22,79.86,21.91,80.3,21.91ZM65.88,23.58c3.65-3.44,9.31,1.6,5.66,5.36C67.88,32.37,62.19,27.36,65.88,23.58ZM32.8,25.79a.94.94,0,0,1,.75-.44l3.75-.45c.54-.16,1,.26,1.2.69,0,.1.17.19.09.33s-.22.1-.33.11l-2.1.12-3.1.11C32.72,26.23,32.59,26.08,32.8,25.79Zm.25,1.78c1.62,0,3.57-.18,5.2-.26.67,0,.22.41,0,.7a1,1,0,0,1-1,.5c-1.21-.05-2.49-.05-3.74-.12C33.07,28.51,32.21,27.62,33.05,27.57ZM30,32.38a.49.49,0,0,1,.75.42l3.2,1.57a.5.5,0,0,1,.75.43l3.23,1.61a.42.42,0,0,1,.7.35h0L39,35.14Q33.2,32.23,27.58,29.5l-1,1.07a.43.43,0,0,1,.14.36Zm50.71-8.76c.59,0,.57-.89,0-.88A.44.44,0,1,0,80.66,23.62Zm-55.53,9,.55.3L26.2,31c-1.2-.52-2,.89-1.11,1.55Zm30.06-18c1.33-.12.58-2.13.84-3l2.19-.67v1.6c-1.11-.64-1.76,1.25-.43,1.34a.77.77,0,0,0,.77-.73V10h0c-.17-.07-2.65.85-2.83.79h0v2.51C54.72,12.74,54,14.34,55.19,14.58ZM56,10.86l2.2-.69v.35L56,11.2Zm4.31,3.29a1,1,0,0,0,1-.92V10.11A1.18,1.18,0,0,1,62,11.16a.2.2,0,0,0,.22.2c.63-.13-.08-1.36-.5-1.48-.26-.19-.4-.31-.4-.57a.22.22,0,0,0-.44,0c0,1.05,0,2.11-.06,3.17C59.42,11.57,58.68,14.11,60.35,14.15ZM80.68,29.06a.44.44,0,1,0,0,.88C81.27,30,81.25,29.06,80.68,29.06ZM39.24,19.88a.71.71,0,0,0,.23-.19h1.9c-.25,1.77.8,3.79,2.79,3.69,3-.08,6-.13,9-.18a2.08,2.08,0,0,0,1.34-.63,2.27,2.27,0,0,0-2.06-3.71H50.49a.5.5,0,0,0-.18-.27c-.13,0-.35,0-.48,0v-.35l2.91.11h.09s3.78.09,4.71,1.16c-.09.48.19,1,.75.87A.58.58,0,0,0,58.7,20c0-1.71,0-3.47.08-5.1a.6.6,0,0,0-1.19,0v.45c-1,1.16-4.74,1.25-4.74,1.25h-.1l-2.92.17a.3.3,0,0,0-.27-.26h0v-.41c.28.06.35-.24.12-.27h-.5c-.17,0-.16.29,0,.28h.1v.4h-.66v-.41c.28.06.38-.25.12-.28h-.47c-.26.05-.18.34.1.28v.39h-.75v-.39c.25.06.37-.23.1-.27h-.47c-.22,0-.19.33.1.27v.4a.37.37,0,0,0-.29.42H44.3a3,3,0,0,0-2.72,1.9l-2,.07c-.31-.28-1-.51-1-.14v1.16C38.43,20.17,38.79,20.17,39.24,19.88ZM50.4,22.32V19.69c1.31.11,3.65-.53,3.58,1.25a1.06,1.06,0,0,1-.89,1.39H50.4Zm-1.08-2c.44.05.42-.41.4-.71H50v2.63h-.67Zm-5.87-1.95a3,3,0,0,1,.81-.36h2.79v.5c-.24,0-.91-.15-.87.28H43a1.2,1.2,0,0,1,.45-.39Zm-.8,1.72h0v-.44H46c.1.51-.3,1.5.39,1.64H47c.47,0,.47-.51.45-.86h1.36v1.92H44.16C43,22.35,42.6,21.1,42.65,20.13Zm67.1,56.39c-3.79.32-3.6,5.47.29,5.22a2.6,2.6,0,0,0-.25-5.19Zm-59.32,9.6c-.22-1.94-1.47-3.51-1.91-5.37,0-.26-.2-1.15.15-1.26h.09c.52,0,.5-.82,0-.85-1.66-.07-1.29,2.93-1.16,3.91.16,1.42.66,2.92.28,4.34-.14.5-1,1.52-.45,2s1.62,0,2.07-.35a2.65,2.65,0,0,0,1-2.41ZM49.12,97.87v-.33c-.14-.05-.06-.48-.08-.58.12-.82-1.56-.89-1.41,0,.11,0,.39,0,.51,0s0-.15.15-.15.17,0,.17.18v.17c-.27,0-.62,0-.86.12-.55.53.6,1.08.9.5C48.53,98,49.12,98.16,49.12,97.87Zm-.72-.44h-.26c-.06-.27.18-.18.37-.19v.07Zm13.3-.81v.95a1.8,1.8,0,0,0,0-3.6v1a.84.84,0,0,1,.82.86h0a.82.82,0,0,1-.8.94ZM49.94,99.83c-.69,0-.67,1,0,1.07A.54.54,0,0,0,49.94,99.83ZM50.38,96h-.81c-.1,0-.15,0-.14.15l.11,3.21c-.06.25.4.12.7.15.09,0,.14,0,.15-.14l.14-3.19a.2.2,0,0,0-.2-.18Zm-6.27.28c-.38.41.38.84.64.41,0,.17.45.26.46.07s0-.2,0-.25a.08.08,0,0,1,0-.09v-.32c.08-.59-1.14-.66-1,0,.09,0,.28,0,.37,0h0c0-.07,0-.1.12-.1s.11,0,.11.13v.12c-.24,0-.51-.11-.73,0Zm.58.1h-.08a0,0,0,0,1,0,0s0-.08.1-.08Zm2.75,4.54a.67.67,0,0,0,.69-.34c.07.37.86.51.91.14,0-.09.06-.44-.08-.47-.24-.19-.07-.58-.12-.85.17-1.18-2.27-1.28-2.05,0,.14,0,.59,0,.72,0h0c0-.32.51-.28.46,0v.24a2.11,2.11,0,0,0-1.14.16A.64.64,0,0,0,47.44,100.87Zm.23-1H48v.26h-.37a.24.24,0,0,1,0-.12C47.39,100,47.54,99.91,47.67,99.92Zm-1.08-3c0,.39-.15,1.12.46,1.11.3,0,.25,0,.24-.14s0-.29,0-.35h0s0-.44,0-.5a.6.6,0,0,0-1-.54c0-.28.1-.77-.07-.94,0,0-.4,0-.41,0A11.38,11.38,0,0,0,45.77,98c0,.14.41.06.48.08s0-.82.08-1.08a.19.19,0,0,1,.15,0l.06,0Zm47.52,27.25c5.58-.44,6.59-8.39,1.32-10.21,0-1.28-.11-2.55-.16-3.82h.81v-1H95a1.08,1.08,0,1,0-1.35.06c-.56,0-2.15.1-2.68.08v.94h.81c0,1.27.1,2.54.16,3.81C86.78,116.39,88.45,124.33,94.11,124.19Zm-1.76-2a.6.6,0,0,1-.11-1.2A.6.6,0,0,1,92.35,122.17Zm2.62.41a1.15,1.15,0,0,1-.16-2.3A1.15,1.15,0,0,1,95,122.58Zm.22-3a1,1,0,0,1-1-1c.32-.11,1.28-.49,1.61-.6A1,1,0,0,1,95.19,119.61Zm-2.72-4.72.32-.12c-.07-1.5-.14-3-.2-4.51l1.72-.07c0,1.51.12,3,.18,4.52a4.19,4.19,0,0,1,2.8,1.92,10,10,0,0,0-3,.89c-2.56,1.07-3.85.1-4.28-.34A4.24,4.24,0,0,1,92.47,114.89Zm-69-74.34a.45.45,0,0,1-.27-.67c.29-.43.37-1.16.87-1.41.48-1.77,1-3.54,1.46-5.3l-.69-.33a68.3,68.3,0,0,0-5.65,11l2.1,1C22,43.41,22.73,42,23.47,40.55Zm91.06,10c1.51-.32.78-2.59-.64-2.16S113.15,50.89,114.53,50.52Zm-.52-1a2.33,2.33,0,0,1,.21-.63h.22c.18.15.48.27.53.46C115,50,114.07,50.21,114,49.48Zm-4.44,6.17c-.13,0-.15.11-.15.21a1.62,1.62,0,0,1-.69,1c-.62.38-1.16,1.17-1.94,1.12a4.44,4.44,0,0,0-3.12.81c-.22.16-.62.3-.48.63s.52.19.81.2c.64,0,1.26-.13,1.9-.17,1.4,0,2.13.89,1.65,2.13,0,.1-.15.22-.06.31s.25,0,.36,0c.66-.16.79-.09.92.58,0,.48.32.26.46-.16a2.61,2.61,0,0,0,.06-2.22,1.42,1.42,0,0,1,.37-1.81c.66-.65.75-2.19-.09-2.68Zm6.1-1.66c.79-.26,3-.22,2.41-1.5-.58-2.63-1.57-5.22-4-6.67-.85-.34.37-3-.86-2.63a4.35,4.35,0,0,1-4.52-1.37,1,1,0,0,0-1.84.69,2.05,2.05,0,0,1-.18.58c-.63-.39-.89-1.26-1.81-1a1,1,0,0,0-.72,1.16c0,.17-.14.33-.22.51a5.91,5.91,0,0,1-1.05-1,8.11,8.11,0,0,0,.69,4.85l1.62-.34A2,2,0,0,1,107.55,45a2.1,2.1,0,0,1,.87-2c.52-.36.73-.28.94.35-1.23.5-1.43,1.15-.67,2.31.07.12,0,.33,0,.49a1.19,1.19,0,0,1-.52-.07,1.39,1.39,0,0,0-1.83,0,1.31,1.31,0,0,0-.15,1.85,1.71,1.71,0,0,1,.11.59c-.72,0-1.35-.68-2.09-.27-.23.11-.32.25-.14.5a10.56,10.56,0,0,0,4,3.9,6.82,6.82,0,0,1,3.37-7.6,1.06,1.06,0,0,1,1.26.17c-2.67,1.11-4.63,3.86-4,6.82C108.93,54.6,113.81,54.24,115.67,54Zm-3.19-4.07c-.68-2.34,2.68-3.14,3.47-1,.69,2.34-2.76,3.24-3.47,1Zm-.18-27.38c-.28.76.32,1.43.78,2a3.45,3.45,0,0,1,1.08,2.91,2.23,2.23,0,0,0,.36,1.53c.3.48.3.52-.18.75-2.72,1.21-3.18,4.8-.12,5.87,1.68.83,3.61,0,5.27.76a1.06,1.06,0,0,0,1.4-.15c.12-.15.2-.27-.11-.33-.65-.16-.47-.92-.07-1.29,2.33-2.18,2.48-6-1.28-6.43a6.92,6.92,0,0,0-2.58.46c-.26.1-.34.07-.34-.25-.11-1.68,1.19-6.44,3.43-5.75.16.09.2,0,.21-.15.48-2.91-2.62-6.33-5.25-3.78-.49.44-.75.47-1.41.09-.14-.09-.27-.16-.4,0a1.61,1.61,0,0,0-.79,2,2.75,2.75,0,0,1,0,1.79Zm8,6.86c1.67.85,1.15,3.11.15,4.29a3.22,3.22,0,0,0-2.69-4.5A3.49,3.49,0,0,1,120.28,29.4Zm-5.37-6.72c-.06-1.05,1.31-4.34,2.63-3.31.24.31.08.56-.15.74-2,1.44-2.28,4-2,6.29A10.16,10.16,0,0,1,114.91,22.68ZM76.55,111.92c0,.24.11.36.35.36h1.9a.39.39,0,0,0,.27-.11,6.88,6.88,0,0,0,.08-1.77c.63-.05,1.49.2,1.42-.36v-1.38a.32.32,0,0,0-.37-.37H79.14v-1.65a.32.32,0,0,0-.35-.37H77c-.24,0-.36.13-.36.38v1.65H75.09l3-6c.13-.23.07-.36-.17-.36H75.75c-.15,0-.29.11-.4.34l-2.85,5.61a5.68,5.68,0,0,0-.17,2.14c0,.22.12.33.38.33h3.84Zm-11.37-15a4.08,4.08,0,0,0-3.06-4.79v1a3,3,0,0,1,.05,5.71v1A4.09,4.09,0,0,0,65.18,96.88Zm12.91,24.29a1.74,1.74,0,0,1-1.54-.77c-.09-.13-.23-.13-.43,0l-.81.55c-.74.63,1,1.7,1.61,1.76a4.9,4.9,0,0,0,3.62-.48,2,2,0,0,0-.56-3.56c1.57-.38,1.52-2.32.44-3.22a3.16,3.16,0,0,0-2.23-.72,2.92,2.92,0,0,0-3,1.76c-.07.17,0,.29.2.36s1.64.7,1.66.38a1,1,0,0,1,1.6-.45.77.77,0,0,1-.38,1.34c-.38,0-1.1-.14-1.12.2,0,.51-.17,1.3.27,1.26s1.13-.09,1.45.22c.67.61.15,1.57-.87,1.45ZM29.73,115a5.4,5.4,0,0,1-3.27-3.19c.44,3,1.58,6.16,4,8.16a1.91,1.91,0,0,0,3.06-1.15c.13-3.45-2.55-3.2-3.83-3.74Zm27.36,22.78a48.1,48.1,0,0,0,14.23,2.31l.28-3.94a49.91,49.91,0,0,1-13.88-2.24c-.19,1.4-.5,2.67-.66,3.95Zm-1.82-.53,1,.32.76-3.81-1-.3Zm16.65-.93c-.07,1.3-.16,2.6-.25,3.91h0c.69-.35,1.39-.69,2.08-1.07a15,15,0,0,1,.08-1.9c-.65-.3-1.28-.62-1.91-.94Zm2.43,2.51,1.35-.8c-.44-.16-.86-.34-1.29-.53,0,.44,0,.9,0,1.33Zm-16.5-19.67c.89.15.88-2.06,0-2-.9-.14-.85,2.08,0,2Zm13.4,7.67c-.1.48-.21,1-.31,1.4l.47.33a7.61,7.61,0,0,0,.38-1.7Zm-9.49,6.48a.91.91,0,0,0,1-1.3c-.68-1.69-1.37-3.36-2.07-5,7.35-9.58.25-24.57-11.68-24.64-8-.14-14.31,6.62-14.1,14.9.16,10,10,17.89,19.24,14.56ZM43.81,120.42c-.87,0-1.32-.52-1.34-1.5-.07-.6.17-1.3-.16-1.82-1.48-.95-.81,2.22-.88,3,0,.17-.07.27-.23.25H40c-.16,0-.24-.09-.24-.26-.07-2.32-.12-4.6-.17-6.86,0-.18.07-.27.24-.26H41a.25.25,0,0,1,.26.23c0,.86,0,1.71,0,2.57a1.75,1.75,0,0,1,2.77,1.66v1.26a.31.31,0,0,0,.07.33c.42-.06.22.79.26,1S44.28,120.43,43.81,120.42Zm5.56-.88a2.51,2.51,0,0,1-3.76.23,3,3,0,0,1-.12-3.65,2.27,2.27,0,0,1,3.85,2.1,18.45,18.45,0,0,1-2.71.08h0c.07.92,1.42,1.06,1.92.4a.15.15,0,0,1,.2,0C49,119,49.53,119.4,49.37,119.54Zm6.8-3.23c2.52-2.22,5.25,1.3,3.4,3.71A2.34,2.34,0,0,1,56.2,120,3,3,0,0,1,56.17,116.31Zm-4.63,4.26A1.33,1.33,0,0,1,50.2,119c0-1.91,0-3.8-.1-5.71,0-.19.08-.27.25-.27H51.5c.17,0,.25.09.25.27,0,1.8,0,3.6.08,5.4,0,.17,0,.3.15.35h.16v.07c-.07.56.3,1.39-.63,1.43ZM53,119.12c0-1.9,0-3.81-.1-5.78a.24.24,0,0,1,.25-.27h1.15c.17,0,.25.1.26.28l.07,5.39c0,.28.08.38.3.35a.09.09,0,0,1,0,.07c0,.3,0,.6,0,.9s-.23.41-.71.4A1.18,1.18,0,0,1,53,119.12ZM54.66,133c-1.65-.55-2.58,3.12-.75,3.76l.8.27c.26-1.26.54-2.51.81-3.77Zm82.75-65.4c-.51-6.13-4.17-10.69-9.43-8.84.75-3,2.76-7.35,6.49-6.41.56.14.88-.29.89-1a1.53,1.53,0,0,0-.84-1.62c-4.75-1.41-7.25,4-8.71,8.37-.33,1-.29,1-1,.26-4.64-5.09-12.66-1.66-13.88,4.86-1.46,6.13-.21,14.73,6.23,17.47a4.85,4.85,0,0,0,4,0c.38-.19.45-.07.57.16,1.62,2.66,6.22,1.75,8.63.69C135.59,79.22,137.92,73,137.41,67.61ZM118.9,62.67c-4,1.72-4.65,6.36-4.27,10.26C112,68.68,112,61.07,117.5,59.18a1.92,1.92,0,0,1,1.41,3.55Zm-5.17,67.92a1.16,1.16,0,0,0-.69-1c-.25-1.52-.49-3-.7-4.55.86-.52,1.74-1,2.65-1.57a73.88,73.88,0,0,1-10.79-2.55c-3.16,1.76-6.17,3.47-9.65,5.18,3.59,1.29,6.94,2.41,10.21,3.28a1.26,1.26,0,0,0,1-.16c2-1.31,3.94-2.6,6.1-3.91.2,1.46.44,2.93.68,4.39a1.56,1.56,0,0,0-.06,1.91,13.86,13.86,0,0,1-.08,1.8l.51.11v-1.16l.28,1.78.51-.12-.28-1.77c.14.34.29.68.43,1l.44-.37-.61-1.49A1.47,1.47,0,0,0,113.73,130.59Zm21.45-19.67a1.46,1.46,0,0,0-2.14.25,53.52,53.52,0,0,1-5.37,6.82,48.64,48.64,0,0,1-6.94,6l2.31,2.65a43.49,43.49,0,0,0,12.86-13.43,1.81,1.81,0,0,0-.71-2.3ZM18.2,46l2,1L21,45.27l-2-1A1,1,0,0,0,18.15,46Zm52.17,74.84c-5.37-.24-8.21,6.15-5.22,10.34l-.91,2.13a.42.42,0,0,0,.19.56.59.59,0,0,0,.23,0l3.26-.43c3.86,1.77,8.41-1.42,8.43-5.58A6.59,6.59,0,0,0,70.37,120.84Zm-3.47,8.81h-.52v-2.1a3.26,3.26,0,0,1-.24.4c-.07-.11-.21-.37-.3-.5a6,6,0,0,0,1.07-2l.6.23s0,.06-.12,0a8.7,8.7,0,0,1-.43,1h.16a.1.1,0,0,1-.11.07c0,1-.05,2-.09,2.94Zm.19-.91a3.92,3.92,0,0,0,.6-1.39l.58.2h-.11a4.26,4.26,0,0,1-.67,1.43,3.76,3.76,0,0,1-.38-.24ZM70,129l-.52.15a5.71,5.71,0,0,0-.46-1.56l.46-.15h-.1l.09-.52H69a22.1,22.1,0,0,1-.08,2.31c0,.42-.11.6-.88.56a2.75,2.75,0,0,0-.16-.56c.09,0,.53.06.52-.07l.07-2.31h-.48a4,4,0,0,1-.5.8,2.72,2.72,0,0,0-.39-.37,4.53,4.53,0,0,0,.8-1.74l.61.2a.11.11,0,0,1-.11,0c-.06.18-.13.38-.2.56.2,0,1.77.11,1.93.1a9,9,0,0,1-.23,1.15l-.32-.08a6.91,6.91,0,0,1,.52,1.53Zm1.77.58a3.23,3.23,0,0,0-.38-.45,2.42,2.42,0,0,1-.84.78,2.21,2.21,0,0,0-.3-.45,1.81,1.81,0,0,0,.75-.7l-.23-.21v.15l-.43-.26c.12-.37.24-.87.37-1.4h-.35v-.5h.45a4.32,4.32,0,0,1,.19-.91l.6.11h-.13a3.4,3.4,0,0,1-.17.76,2.24,2.24,0,0,1,.89.09,6.06,6.06,0,0,1-.44,2,2.9,2.9,0,0,1,.48.51Zm2.68-1.75v.52h-1c-.12.82.5,1.83-1,1.7a3.35,3.35,0,0,0-.16-.54h.44c.15,0,.18,0,.18-.07v-1.16H72v-.52H73V127h.16a2.81,2.81,0,0,0,.45-.53l-1.37-.09v-.49L74,126H74l.4.28a.21.21,0,0,1-.11,0,7.35,7.35,0,0,1-.87,1v.44Zm-27.3-11c-.29,0-.49.2-.57.61h1.16C47.77,117,47.61,116.78,47.17,116.78Zm31.14,11.84.47,9.45L93,137.36l-.47-9.45Zm3.47,2.32c.46-.44.92-1.29,1.26-.95a.29.29,0,0,1,0,.41l-.84.94c-.27.3-.74-.17-.44-.44Zm0,.81c0,.53-.83.4-.59-.1.12-.23.54-.24.54.06Zm-1.7-.43,1.15-1.24a.31.31,0,0,1,.42,0,.29.29,0,0,1,0,.42l-1.16,1.25c-.28.29-.78-.17-.47-.47Zm.07,1.48.56-.63c.26-.28.7.14.43.41h0c-.14.11-.56.73-.76.72s-.48-.33-.28-.54Zm3-.92-2.53,2.79c-.27.26-.7-.15-.42-.41l2.52-2.8a.27.27,0,1,1,.38.39Zm.55-.62a.29.29,0,0,1-.43-.39c.22-.27.74.14.39.36Zm.85-.93c-.12.1-.32.41-.49.41a.29.29,0,0,1-.22-.49l.28-.32a.26.26,0,1,1,.38.34Zm21.45-.24a1.53,1.53,0,0,1-1.19.24c-1.55-.39-3.09-.84-4.63-1.34.28,2.08.58,4.2.85,6.32,3.18,2.4,7.84.89,10-2.18-.3-1.89-.61-3.8-.91-5.7a46.19,46.19,0,0,0-4.18,2.63Zm-7.56.31-.51.17-.08-.27c.14-.08.71-.11.64-.37s-.57,0-.74,0l-.11-.34a1.15,1.15,0,0,0-.82.89c-2,.76-.9,3,.27,4,.81.69.93,2.31-.52,2-.78-.24-1.54-.76-2.4-.54v-.11l-.38.07-.38-7.64a1.16,1.16,0,0,0-1.26-1.16c-2.89.23-11.6.67-13.52.68A1.17,1.17,0,0,0,77.51,129l.47,9.43c-.38,0-1.35-.19-1.32.49v.84a.47.47,0,0,0,.49.44c3.57.61,17-.69,17.72-.93.63,0,.4-.94.44-1.33,0-.7-1-.35-1.39-.33v-.88h0l.33-.07v-.08h0c1.21-.33,2.39,1.22,3.62.27.91-.78.45-2.11-.28-2.84s-2-2.29-.44-2.87a1.15,1.15,0,0,0,1.06.18l-.12-.38.51-.17c.27-.07.09-.54-.16-.4Zm-11,7.57c0,.1,0,.3-.13.3L85,138.4c-.14,0-.19-.19-.23-.29l-6.13.31L78.19,129a.64.64,0,0,1,.58-.65l13.55-.68a.62.62,0,0,1,.64.58l.48,9.43Zm31.24-12.73a5.62,5.62,0,0,1-2,.14,5.6,5.6,0,0,1-1,3.71.49.49,0,0,0-.66.71h.06c.9-.54,1.85-1.15,2.82-1.79-.54-.91.78-1.5,1.34-.75.71.84-.65,1.74-1.28,1-1,.64-1.92,1.25-2.84,1.8v.07c.27.47,1.13.3.95-.3a8.6,8.6,0,0,1,4.21.29,5.26,5.26,0,0,1,2.18-3.06l-2.32-2.63a5.43,5.43,0,0,1-1.51.88Zm-88.6-16.33a.87.87,0,0,0-1.14-1,.69.69,0,0,0-.39.78,1.41,1.41,0,0,1-.36,1.33C29.31,110.07,30,109.62,30.12,108.91Zm4.17-16.59a14.18,14.18,0,0,1-8.83-.17c-.27-.1-.34,0-.33.27,0,3.92,0,12.89,6,11.38a3.3,3.3,0,0,0,1.12-.64.85.85,0,0,0,.26-1.16,16.06,16.06,0,0,1-.85-4.33c0-.36,0-.72-.39-.9s-.34-.75.09-.74c.18,0,.21-.19.2-.37V93.93c0-.58.13-.53.5-.39a11.51,11.51,0,0,0,2.17.55c.3,0,.43,0,.41-.38a6.49,6.49,0,0,1,0-1.08C34.64,92.26,34.5,92.26,34.29,92.32Zm-7.6,4.19c-.22-.2-.13-.67.21-.64a9.8,9.8,0,0,1,1.43.08c.14,0,.28,0,.33.23C28.66,97.11,27.16,97.1,26.69,96.51Zm5.38,5.12a4.62,4.62,0,0,0-4.42-.1A2.43,2.43,0,0,1,32.07,101.63Zm-3.91,9.52c1.1,1.24,3.3,2,4.69.85.94-1-.31-2.18-1.42-1.64s-2.11,1.74-3.25.78ZM14.9,85.33c1.21,0-.31-1.93-.45-2.59a.47.47,0,0,0-.59-.28.45.45,0,0,0-.32.51,9.38,9.38,0,0,0,.9,2.16A.46.46,0,0,0,14.9,85.33Zm.67,4.08c.69-.53-.24-1.34-.4-2a.49.49,0,0,0-.66-.26c-.73.51.2,1.43.39,2A.5.5,0,0,0,15.57,89.41Zm1.26-36.06q4.49.45,9.1,1a.39.39,0,0,0,.4-.33.38.38,0,0,0-.28-.48q-4.64-.52-9.12-1C16.46,52.5,16.37,53.29,16.83,53.35ZM24,88.84c3.07,2.89,8.77,4.4,10.86.69.69-1.25.63-4.73.5-6.81-.08-1.7,1.14-3.82,3.09-3.29-3.23-7.72-3.6-16.25-4.15-24.5-6.31-1.51-13.86,2.8-18,8.24C10.42,71.5,17.06,83.08,24,88.84Zm7.69-2.22c-2.81,4.55-6.35.44-4.16-3.39,1-1.81,2.71-2.51,3.86-1.55S32.72,84.81,31.73,86.62ZM28,56.77c3.41-.32,4.93,5.22,1.34,6.11C25.9,63.18,24.37,57.66,28,56.77Zm-8.5,6.4c2.22-3.35,6.19.79,4.57,3.69C21.8,70.21,17.85,66.06,19.46,63.17Zm.28,8c3.36-.3,4.88,5.17,1.37,6.11-3.37.29-4.9-5.22-1.37-6.16ZM14.81,57.49a.31.31,0,0,0,.4.26c3-.71,5.94-1.41,9-2.08a.38.38,0,0,0,.29-.44.33.33,0,0,0-.39-.44c-3,.67-6,1.38-9,2.1C14.81,57,14.86,57.24,14.81,57.49Zm11.42,51.19h0l.62-3.19c-.1-.31-.22-.62-.32-.93l-5.24,2.19.38.9,2.82,1.79h0c.28.7.56,1.39.85,2.08l1.75-.72C26.8,110.07,26.5,109.37,26.23,108.68Zm.19,3.17Zm13.33-7.12c2-2.91,1.92-6.64,1.94-10,0-.38-.07-.44-.41-.34a14.67,14.67,0,0,1-8.82-.26c-.29-.1-.3,0-.3.26V96c.18,3.19.15,7,2.74,9.26A3.61,3.61,0,0,0,39.75,104.73Zm-1.38-6.86c.53-.48,1.91-.36,1.92.5,0,.22-.22.27-.39.27H38.58C38.17,98.66,38.06,98.08,38.37,97.87ZM34,98.46c-.36,0-.45-.48-.21-.69.53-.49,2-.46,2,.47-.08.35-.81.17-1.07.21Zm2.53,5.3c-.69-.11-1.67-.59-1.71-1.35a4.86,4.86,0,0,0,4.41.08,2.31,2.31,0,0,1-2.75,1.28ZM47,95c1,.15,2-1.13,1-1.81a1.67,1.67,0,0,0-1.27-.23c-2,.34-2.66-.89-2.68-1C43.85,93.48,45.47,94.9,47,95Zm-26.2-6.69c-2,.86-3.47,1.52-5.62,2.48q1.29,3.7,2.71,7.43l5.78-2.46C22.85,93.18,21.47,90.84,20.75,88.28ZM24,96.89,18.22,99.3c.08.19.15.38.22.56l5.7-2.4Zm1.95,6c-1.79.76-3.57,1.5-5.36,2.24l.24.56,5.32-2.23Zm-2.92.57c2.66-1,1.36-5.15-1.44-4.15S20.12,104.56,23,103.41ZM61.51,72.93c0-.85-.95-.73-1.55-.73.33-.5.84-1.25.14-1.67s-1.12.42-1.39,1c-.3-.53-.65-1.39-1.41-1s-.14,1.18.16,1.68c-.55,0-1.49-.15-1.53.66s.92.77,1.54.76c-.29.53-.85,1.23-.12,1.69s1.09-.44,1.38-1l.42.71a.72.72,0,0,0,1.34-.34c0-.28-.46-.88-.58-1.12C60.48,73.57,61.45,73.75,61.51,72.93ZM48.14,67.7a22.76,22.76,0,0,0-7.09-9.52C43.33,66.7,44.67,71.24,44.39,79,49.75,77.07,50.24,72.35,48.14,67.7ZM49,59.6a1.77,1.77,0,0,0,1.41,3.24A1.77,1.77,0,0,0,49,59.6ZM46.47,92.19c1.45-.33,1-2.13-.39-1.42-.63.41-1.25,1.37-2.1.84A2.58,2.58,0,0,0,46.47,92.19Zm2.08-27.52L53,62.75l-.21-.44-4.44,1.91ZM88.65,62a.65.65,0,0,0,.86.38c.18-.06.4-.21.39-.43a1.13,1.13,0,0,0,1,.44c0,.16.1.5.34.43s.08-.39,0-.54a1,1,0,0,0,.58-.9H92a.75.75,0,0,0,.53.08.65.65,0,0,0,.16-1.19l-1.34-.8a1,1,0,0,0-.38-.45c0-.18.38-.69.07-.79s-.34.48-.43.64a1.08,1.08,0,0,0-1.06.29c-.17-.08-.53-.52-.72-.32s.36.48.47.6a1.27,1.27,0,0,0-.07.61C89,60.69,88.22,61.53,88.65,62Zm3.93-1.42c.24.17.29.64,0,.73s-.44-.09-.59-.19L91.59,60Zm-1,.6-1.33.38a1.31,1.31,0,0,0-.15-.46l1.34-.38a1.29,1.29,0,0,0,.2.44Zm-.45-1.4.15.46-1.32.37c-.06-.15-.1-.31-.15-.46Zm-2.14,1.83.52-1,.35,1.15c-.09.16-.18.45-.37.5-.36.15-.66-.32-.5-.63Zm-42.38-2,.18.44,4.13-1.77c-.08-.14-.15-.29-.22-.43ZM65.63,73.3a.38.38,0,0,0-.38-.38h-.43l.22-.37a.43.43,0,0,0-.39-.56c-.28,0-.41.37-.54.55-.13-.27-.35-.73-.73-.52a.46.46,0,0,0-.18.51l.22.37c-.29,0-.81-.07-.81.36s.51.38.81.38l-.21.36c-.12.44.43.81.71.38l.2-.36c.17.3.33.65.74.55s.06-.63-.09-.87C65.08,73.7,65.66,73.78,65.63,73.3ZM45.53,87.7A3.24,3.24,0,0,0,45,83.19c.17,1.39.2,3.26.39,4.76A2,2,0,0,1,45.53,87.7Zm-.75-4.62a3,3,0,0,0-1.4-.44,52.1,52.1,0,0,0,1.15,6.85,9.41,9.41,0,0,1,.68-1.25c-.21-1.57-.23-3.75-.43-5.19Zm8-2.67h1.27v-.68H52.79ZM51.73,75h.53c-.2.32-.56.84-.09,1.11s.73-.3.91-.64c.17.32.46.94.92.65s.07-.79-.11-1.11c.37,0,1,.08,1-.48s-.63-.47-1-.47c.2-.34.58-.82.1-1.11s-.73.29-.92.62c-.09-.15-.18-.3-.26-.46a.47.47,0,0,0-.88.23c-.1.19.21.56.28.71h-.55a.46.46,0,1,0,.09.92ZM57.62,85a1.5,1.5,0,0,0,0-3,1.49,1.49,0,0,0,0,3Zm-10-30.11-1.38.59c-.13.84-.24,1.67-.37,2.5l.29.73,4-1.73-.26-.74Zm4.63,31.63H60a.49.49,0,0,0,.52-.47V81.17a.53.53,0,0,0-.53-.52l-7.73-.06a.5.5,0,0,0-.5.51L51.78,86A.53.53,0,0,0,52.26,86.51Zm5.34-5a2,2,0,0,1,0,4C55.08,85.39,55,81.51,57.6,81.48Zm-3.19,0v.93H52.65v-.93Zm-9.73-28.3.9,2,2.31-1-.89-2Zm11.65,16.2c-.95-1.92-1.89-3.84-2.84-5.78L49,65.54l2.38,5.95Zm2.77,9.41V76.47a.3.3,0,0,0-.3-.29H55.4a.29.29,0,0,0-.29.29v2.32c0,.43.68.25.93.28l-.45,1.34h3.06l-.48-1.35c.25,0,.94.15.93-.29Zm-3.47-.25v-1.8h2.83v1.8Zm42-1.63a2.56,2.56,0,1,0,2.18-4.63c-3-1.33-5.12,3.28-2.12,4.62Zm-9.25,28.67a1.16,1.16,0,0,0,0-2.32c-1.56,0-1.5,2.49.09,2.31Zm2,3.2a1.38,1.38,0,0,0-.19-2.74A1.38,1.38,0,0,0,90.47,108.78ZM63.82,67c.47-1.56-.37-3.22-.86-4.71l-1.25-3.63c-.76-1.82-1.35-4,0-5.72a.41.41,0,0,0,.44-.7L58.5,49.6a.39.39,0,0,0-.47.63c-2.37,3.42-1.11,7.71.73,11.06.66,1.46,1.28,2.94,1.94,4.41a.52.52,0,0,1-.12.7c-.44.37-1,0-1.11-.48a.91.91,0,0,0-.7-1.58c-.07-.17-.16-.33-.22-.5A.66.66,0,0,0,58,62.68c-.07-.17-.16-.32-.22-.5a.83.83,0,0,0-.67-1.49,1.93,1.93,0,0,0-.27-.3.67.67,0,0,0-.51-1.24h0c-.07-.17-.16-.32-.22-.47a.64.64,0,0,0,.44-.86.77.77,0,0,0-1-.44l-.08-.22a.32.32,0,0,0,.36-.42.33.33,0,0,0-.58-.07l-.08-.21.65-.24c.53-.33-.14-1-.21-1.46l-1,.38v-.07l1-.38c-.08-.22-.22-.52-.5-.41l-.77.27-.07-.19c.79.12.31-1.09-.21-.47v-.14a.45.45,0,0,0-.31-.73l-.11-.26a.46.46,0,0,0-.32-.79l-.07-.16a.35.35,0,0,0-.27-.62V51.1a.3.3,0,0,0-.23-.52c-.54-1.26-.59-1.37-1-2.24l.22-.08.07.16h.11l-.07-.18h.13a.12.12,0,0,0,0-.11h0c0-.13-.2-.06-.29-.07L51.55,47c-.86-1.66-2.47.23-3.34.93-.11-.08-.23,0-.3.1s.08.28.11.37l.34-.26V48c1.49-1.36,2.65-2.84,3.44,0l-.23.09c-.58-1.48-2-1.48-2.91-.32a17.58,17.58,0,0,1-2.89,2.09l-.09-.18-.33.18c-.21-.15-.39-.21-.59,0l-.09-.24-.66.48c-.18.08,0,.29,0,.42l-1.24,1,.09.25,1.46-.48v.16l.89-.33v-.14l.44-.14-.07-.24.49-.16-.13-.34a13.74,13.74,0,0,0,3.46-2.1c.55-.56,1.12-.42,1.25.32-.1,0-.35.07-.27.23h0c0,.17.24.06.34,0,.51,1.47.92,2.67,2.19,6.59-.4,0-.12.45,0,.65s.19.09.29.1c.26.75.53,1.55.8,2.31a.59.59,0,1,0,.2.65c.86,2.56,1.73,5,2.25,6.59a.67.67,0,0,0,.46,1.26c.86,3.39,5.87,3.43,6.87.1Zm-10-7.73c-.55.22-.91-.66-.33-.86a.46.46,0,1,1,.3.86Zm43.52,49a1.09,1.09,0,0,0-.17-2.17A1.09,1.09,0,0,0,97.37,108.29ZM89.82,74.84a1.5,1.5,0,0,0-1.41,2.64,1.5,1.5,0,1,0,1.41-2.64Zm2.47,1.24a1.86,1.86,0,1,0,1.6-3.36c-2.18-1.1-3.85,2.44-1.57,3.38ZM88,81.56a1.86,1.86,0,1,0,1.61-3.35c-2.17-1.11-3.86,2.44-1.59,3.38Zm13.3-.48c1.2-2.71-2.89-4.71-4.09-1.9-1.38,2.69,2.82,4.49,4.12,1.92ZM77,70c.56-3.68,1.11-7.35,1.68-11l-2.74-.41q-.84,5.7-1.7,11.4ZM91.59,44.91a3.38,3.38,0,0,0,5.7-.17,3.56,3.56,0,0,0-2.81-5.14c-.11,0-.28,0-.09.16s.16.27.34.24c.51-.1.71.4.24.63a.73.73,0,0,0-.32.66c0,.34,0,.45-.22.49-.37,0-.24-.66-.77-.73-.24-.06-.38,0-.44-.22s.15-.3.25-.44,0-.06.07-.06c.33,0,.27-.36.33-.59s0-.16-.12-.15A3.37,3.37,0,0,0,91.59,44.91Zm4.51-4c1.43,1.1,1.34,3.69-.15,4.46a4.18,4.18,0,0,0,.1-4.46Zm-3,1.64a.33.33,0,1,1-.65,0,.3.3,0,1,1,.6,0Zm-.77-1.42a.4.4,0,0,1,0,.8C91.88,41.92,91.83,41.09,92.37,41.11Zm-.54,1.07c.39,0,.41.64,0,.65S91.43,42.19,91.83,42.18ZM75.39,38.57c-.66,1.08.81,1.71,1.69,1.77a25.38,25.38,0,0,1,8.5,3.24c3.48,1.88,5.45,5.35,8.23,8a4.39,4.39,0,0,0,7.38-3.16c-.06-.8,0-2.23-1.1-2.28a10.24,10.24,0,0,0-5.51,2c-.58.39-1.4,1.24-1.92.32-3.21-4.74-7.66-8.7-13.35-10.07C79.31,38.38,75.69,37.34,75.39,38.57ZM99.69,47c-.84,1.36-4.28,3-5.79,2.74A11.76,11.76,0,0,1,99.69,47ZM69.61,36.56v1.65h2a.21.21,0,0,1,.22.2v1.76h1.89c2.46-3.5-.89-5.44-4.17-3.61ZM102.2,52a.68.68,0,0,0,0,.79c.28.3.65.08,1,0,.57-.35,1.15.52,1.64-.17.51-1.39-2.08-1.72-2.71-.56Zm.09,3.22c.77-.44.64-1.46-.33-1.47-.48,0-1,0-1.29-.47a1,1,0,0,0-1.25-.37.91.91,0,0,0-.35,1.15A2.35,2.35,0,0,0,102.29,55.21Zm-6.1,1.35c.37-.34.69-.82,1.26-.7a.94.94,0,0,0,1.15-.68,1,1,0,0,0-.76-1.13A2.32,2.32,0,0,0,94.9,55.5a1.06,1.06,0,0,0,.41,1.37C95.63,57.16,95.87,56.7,96.19,56.56ZM93.9,59.29c.34,3.61,5.92,2,6.72-.69A2.15,2.15,0,0,0,99.85,56c-1-.5-1.48.28-2,.81a2.06,2.06,0,0,1-1.93,1A1.69,1.69,0,0,0,93.9,59.29Zm12-4.62c-.17-.88-1.27-1.14-1.57-.21-.22.44-.36,1-.93,1.08a.93.93,0,0,0,.34,1.82,2.24,2.24,0,0,0,2.1-2.67ZM44.41,89.78a54.91,54.91,0,0,1-1.26-7.15,3.5,3.5,0,0,0-1.84.49,76,76,0,0,0,2.62,8.31A7.81,7.81,0,0,1,44.41,89.78ZM26.17,33.09l2.22,1.09,1.28-1.51c-1-.49-2-1-3-1.44Zm-1.41,5.33q1.65-2,3.33-4l-2-1c-.47,1.66-.91,3.3-1.36,5Zm7.09,13.35a.89.89,0,0,0-.3-1.23l-2.32-1.16c-.3.57-.59,1.16-.88,1.72l2.32,1.16A.91.91,0,0,0,31.85,51.77Zm-2-18.34c-.47-.23-.89.51-.39.75S30.36,33.66,29.86,33.43ZM20.52,47.16l3.54,1.77.88-1.73-3.55-1.77ZM30,35.4c-.45,1.65-.91,3.3-1.36,5q1.66-2,3.35-4ZM30,35l2.25,1.16,1.29-1.51-3-1.57ZM27.82,42c.48.24.89-.52.4-.76s-.91.62-.35.81Zm5.93-6.55a.43.43,0,0,0-.57.2h0v.07c-.28.49.52.85.75.36C34,35.79,34,35.55,33.75,35.4Zm4.72,53.92A8.78,8.78,0,0,1,37.33,87c-.28,1.7-1.84,5.27.53,5.89C41.65,93.55,40.08,91,38.47,89.32Zm3.59,1.16a.65.65,0,0,0-.32,1.08c.37.4,1,.41,1.7,0-.73-.11-.66-1-1.33-1Zm-.16-1a35.27,35.27,0,0,1-2.28-4.56c-.74,2.1.54,3.69,2.33,4.64Zm-.06,4.11a2,2,0,0,0,1.79-1.8,3,3,0,0,1-2,.66C40.84,92.7,41.08,93.55,41.84,93.6Zm-.34-9.08c-.15-.55-.29-1.06-.37-1.32a3.86,3.86,0,0,0-1.37,1.52,33.66,33.66,0,0,0,2.52,5.11,6.73,6.73,0,0,1,1.45,1.61,57.94,57.94,0,0,1-2.2-6.92ZM37.7,39.24l-1.15-.56c-1.22,1.41-2.43,2.82-3.61,4.23.23.29-.5,1.3-.59,1.59a.45.45,0,0,1-.59.24h0l-.11-.08c-.75,1.43-1.49,2.87-2.23,4.3l2.51,1.27C33.55,46.68,36,42.16,37.7,39.24Zm-.21,33.69c1.81-.51,3.61-1,5.44-1.51-.94-6-4.37-19.69-7.24-24.41C34.64,52.86,36.15,67,37.49,72.93ZM48.7,37.72c-.15.37-.84.77-.6,1.17a.34.34,0,0,0,.37-.11l.6-.81C49.33,37.69,48.89,37.39,48.7,37.72Zm-5.64,44a42.31,42.31,0,0,0,0-9l-5.27,1.44A37.32,37.32,0,0,0,41,82.22Zm4.28-45.4c-.13.28-1.15,1.22-.41,1.17.36-.17.5-.63.78-.91a.23.23,0,1,0-.37-.28ZM59.08,38.2c-.39-.27-.59-.45-.59-.84a.29.29,0,0,0-.31-.3.3.3,0,0,0-.31.3v4.52a1.35,1.35,0,1,0,.56,1.1V38.5c.59.37,1.1.76,1.06,1.53a.3.3,0,0,0,.32.31.29.29,0,0,0,.31-.29A2,2,0,0,0,59.08,38.2Zm-.46-6.27c-.28-.19-.42-.31-.42-.59s-.44-.29-.45,0v3.22a.93.93,0,1,0-.52,1.71,1,1,0,0,0,1-.93V32.16a1.22,1.22,0,0,1,.71,1.07.2.2,0,0,0,.22.22C59.76,33.31,59,32.06,58.62,31.93ZM24.4,49.09,28,50.91l.88-1.73-3.57-1.8Zm30.5,1.47a1,1,0,0,0,1.07-1V46.07a1.33,1.33,0,0,1,.77,1.17.25.25,0,0,0,.49,0,1.59,1.59,0,0,0-.81-1.42c-.31-.22-.46-.34-.46-.65a.25.25,0,0,0-.49,0V48.7a1,1,0,1,0-.54,1.89ZM46.1,34.69c-.34-.31-.64.46-1,.82a.22.22,0,0,0,.26.34c.34-.18.5-.63.76-.91A.23.23,0,0,0,46.1,34.69Zm15.49,3.2h0L62,39.05l1.31-.43c.34,0,.4.93.6,1.24l1.3-.42h.06c0-.11.1-.23.15-.35l-1.16.37h-.12a7.61,7.61,0,0,1-.47-1.23c-.55.13-1.46.58-1.49.34,0,0-.34-1.07-.35-1.07Zm3.31-1.6a2.69,2.69,0,0,0-2.83,1c.11.37.23.74.35,1.16L63.73,38c.34,0,.4.95.58,1.24l1.24-.4C65.91,37.72,65.7,36.66,64.9,36.29ZM46.11,39.76l-.1.16V40c-.86,1.15-1.74,2.37-2.58,3.54a.29.29,0,0,1-.18.1c-.21.1-.36-.18-.28-.36s.49-.7.63-.88h0c.65-.9,1.3-1.79,2-2.68a.53.53,0,0,0-.1-.74h0a.57.57,0,0,0-.81.21l-1.52,2c-.54.75-1.23,1.68-1.76,2.43-.1.17-.29.41-.51.25a.25.25,0,0,1-.07-.35c.32-.5,1-1.08.6-1.71,0-.07-.1-.12-.15-.18s-.09-.06-.17,0c-.51.81-1.89,2-1.4,3.09-.05.28.37,2.06.31,2.33-.26.39-.63.87-.89,1.25h0a.88.88,0,0,0-.21,1,7,7,0,0,0,1.38,2.15c1,.5,1.93-.7,2.52-1.36l.57-.79c.63-.28,1.13-.17,1.72-.87l2.1-2.89h0l1.51-2c.57-.71-.34-1.18-.72-.53l-1.15,1.61c-.14.18-.53.74-.66.91s-.63.06-.43-.25h0c.74-1,1.72-2.38,2.47-3.38a.52.52,0,1,0-.75-.71h0L45.58,43.5h0l-.07.09h0c-.07.11-.35.48-.43.59h0a.39.39,0,0,1-.33.07c-.27-.27.33-.74.46-1h0l.1-.22L47,40.73h0l.22-.31c.88-1-.37-1.68-1.07-.69ZM32.59,36.69c-1.16,1.41-2.41,2.82-3.59,4.24.22.32-.49,1.3-.59,1.59a.48.48,0,0,1-.73.17c-.74,1.42-1.48,2.86-2.21,4.29l3.65,1.77c.73-1.43,1.47-2.87,2.22-4.29a.47.47,0,0,1-.29-.69c.17-.24.55-1.37.89-1.41q.73-2.69,1.48-5.34Zm-1,6.81c-.14.55.71.7.82.16A.42.42,0,0,0,31.62,43.5Zm1-1.16c1.16-1.33,2.24-2.64,3.38-4l-2-1C33.53,39,33.06,40.68,32.59,42.34Zm6-5.21a4,4,0,0,0-.47-.21l-1.29,1.5.84.41c1,.39,1.83-1.11.94-1.7ZM34,37l2.31,1.15,1.3-1.57-3-1.47c-.18.63-.35,1.26-.54,1.89Zm10.17.92c-.81,1.09-1.63,2.23-2.43,3.32-.11.18.15.32.19.49,0,0,0,.11.13,0l.65-.89,1.52-2.08a1.21,1.21,0,0,1,1.33-.5.65.65,0,0,0-.7-1.05A1.33,1.33,0,0,0,44.16,37.9Zm1.65-7.83c-.17-.13-.25-.2-.25-.37a.14.14,0,0,0-.28,0v2c-.88-.48-1.36,1-.34,1.09a.62.62,0,0,0,.62-.6v-2a.71.71,0,0,1,.43.66.13.13,0,0,0,.13.13c.4-.12,0-.83-.27-.94Z"/></svg>